<svg width="88" height="88" xmlns="http://www.w3.org/2000/svg" xmlns:xlink="http://www.w3.org/1999/xlink" xml:space="preserve" overflow="hidden"><defs><clipPath id="clip0"><rect x="1170" y="6" width="88" height="88"/></clipPath></defs><g clip-path="url(#clip0)" transform="translate(-1170 -6)"><path d="M1245.17 56.3351 1245.17 25.25 1186.5 25.25 1186.5 21.4917C1186.5 17.4941 1183.26 14.2545 1179.26 14.25L1179.17 14.25C1178.66 14.25 1178.25 14.6604 1178.25 15.1667 1178.25 15.6729 1178.66 16.0833 1179.17 16.0833L1179.26 16.0833C1182.24 16.0864 1184.66 18.506 1184.67 21.4917L1184.67 67.4167C1184.67 70.81 1187.32 73.6134 1190.7 73.8141 1187.9 75.5425 1187.03 79.2137 1188.76 82.0139 1190.49 84.8142 1194.16 85.683 1196.96 83.9546 1199.76 82.2262 1200.63 78.555 1198.9 75.7548 1198.42 74.9761 1197.77 74.3187 1196.99 73.8333L1231 73.8333C1228.21 75.58 1227.37 79.2567 1229.11 82.0457 1230.86 84.8345 1234.54 85.6795 1237.33 83.9329 1240.12 82.1863 1240.96 78.5095 1239.21 75.7207 1238.74 74.9569 1238.09 74.3116 1237.33 73.8333L1244.25 73.8333C1244.76 73.8333 1245.17 73.4229 1245.17 72.9167 1245.17 72.4104 1244.76 72 1244.25 72L1191.08 72C1188.55 71.997 1186.5 69.9468 1186.5 67.4167L1186.5 61.8351ZM1234.17 83C1231.89 83 1230.04 81.1532 1230.04 78.875 1230.04 76.5968 1231.89 74.75 1234.17 74.75 1236.44 74.75 1238.29 76.5968 1238.29 78.875 1238.29 81.1521 1236.44 82.9974 1234.17 83ZM1193.83 83C1191.56 83 1189.71 81.1532 1189.71 78.875 1189.71 76.5968 1191.56 74.75 1193.83 74.75 1196.11 74.75 1197.96 76.5968 1197.96 78.875 1197.96 81.1521 1196.11 82.9974 1193.83 83ZM1186.5 38.0833 1199.33 38.0833 1199.33 47.25 1186.5 47.25ZM1228.67 47.25 1215.83 47.25 1215.83 38.0833 1228.67 38.0833ZM1230.5 38.0833 1243.33 38.0833 1243.33 47.25 1230.5 47.25ZM1215.83 49.0833 1228.67 49.0833 1228.67 56.0399 1215.83 57.2417ZM1214 57.4149 1201.17 58.6167 1201.17 49.0833 1214 49.0833ZM1215.83 36.25 1215.83 27.0833 1228.67 27.0833 1228.67 36.25ZM1214 36.25 1201.17 36.25 1201.17 27.0833 1214 27.0833ZM1214 38.0833 1214 47.25 1201.17 47.25 1201.17 38.0833ZM1186.5 49.0833 1199.33 49.0833 1199.33 58.7899 1186.5 59.9917ZM1230.5 55.8667 1230.5 49.0833 1243.33 49.0833 1243.33 54.6649ZM1243.33 36.25 1230.5 36.25 1230.5 27.0833 1243.33 27.0833ZM1199.33 27.0833 1199.33 36.25 1186.5 36.25 1186.5 27.0833Z"/></g></svg>