<svg width="96" height="96" xmlns="http://www.w3.org/2000/svg" xmlns:xlink="http://www.w3.org/1999/xlink" xml:space="preserve" overflow="hidden"><defs><clipPath id="clip0"><rect x="776" y="236" width="96" height="96"/></clipPath></defs><g clip-path="url(#clip0)" transform="translate(-776 -236)"><path d="M823.933 250C816.994 249.992 810.506 253.442 806.633 259.2 802.739 264.945 801.917 272.237 804.433 278.705L813.933 299.711 822.133 316.911C822.644 317.905 823.864 318.297 824.859 317.785 825.234 317.592 825.54 317.287 825.733 316.911L833.933 299.711 843.433 278.705C845.948 272.238 845.125 264.949 841.233 259.205 837.361 253.445 830.873 249.993 823.933 250ZM841.587 277.938 832.128 298.853 823.946 316.019 823.919 316.019 815.754 298.89 806.278 277.938C804.02 272.09 804.773 265.506 808.292 260.318 814.116 251.68 825.841 249.399 834.479 255.223 836.493 256.582 838.227 258.316 839.583 260.332 843.096 265.518 843.844 272.095 841.587 277.938Z"/><path d="M823.933 262C818.962 262 814.933 266.029 814.933 271 814.933 275.971 818.962 280 823.933 280 828.904 280 832.933 275.971 832.933 271 832.953 266.049 828.956 262.02 824.005 262 823.981 262 823.957 262 823.933 262ZM823.933 278.005C820.067 278.005 816.933 274.871 816.933 271.005 816.933 267.139 820.067 264.005 823.933 264.005 827.799 264.005 830.933 267.139 830.933 271.005 830.975 274.83 827.908 277.966 824.083 278.008 824.033 278.008 823.983 278.008 823.933 278.008Z"/></g></svg>